<?xml version="1.0" encoding="UTF-8"?>
<svg id="Capa_1" xmlns="http://www.w3.org/2000/svg" version="1.1" viewBox="0 0 2048 2049">
  <!-- Generator: Adobe Illustrator 29.6.1, SVG Export Plug-In . SVG Version: 2.1.1 Build 9)  -->
  <defs>
    <style>
      .st0 {
        fill: #0866ff;
      }

      .st1 {
        fill: #feffff;
      }
    </style>
  </defs>
  <path class="st0" d="M1070,0c2.8,3.6,9.6,1.8,14,2,436.4,21.3,816.8,333.3,929.8,752.8,16.3,60.4,30.8,132.2,32.2,194.7s-1.8,18,2,24v102c-3.3,2.1-2,7.6-2,11-.8,78.1-18.7,163.8-41.4,238.4-116.1,380.6-456.8,670.1-854.5,714.1v-701.7h275l59-313.8h-334c2.2-64.1-5.6-130.9,6.9-194,34.1-172.1,208.2-143.8,343.1-141.9v-283.9c-30.2-6.2-60.7-12-91.3-15.7-203.4-25.1-454.2-8.3-565.1,190.3-75.6,135.3-65.8,295-65.7,445.1h-212v310.8c0,.2,2.8,3,3,3h209v679.7C356.3,1916.3,32.3,1534.3,3.9,1100.5c-1.2-17.6,3-36.3-3.9-53.1v-46c4.8-11.3,3.4-24.2,4-36C29.3,447.1,451.3,30.9,968,2c10.3-.6,20.8.4,31.2,0l4.8-2.1h66Z"/>
  <path class="st1" d="M4,965.5c-.6,11.8.8,24.7-4,36v-36h4Z"/>
  <path class="st1" d="M1004,0l-4.8,2.1c-10.3.3-20.9-.7-31.2,0V0h36Z"/>
  <path class="st1" d="M2048,973.5c-3.8-6-1.8-16.4-2-24h2v24Z"/>
  <path class="st1" d="M1084,0v2c-4.4-.2-11.2,1.6-14-2h14Z"/>
</svg>