<svg width="175" height="35" viewBox="0 0 175 35" fill="none" xmlns="http://www.w3.org/2000/svg">
<g clip-path="url(#clip0_3817_10648)">
<path d="M58.4983 34.4717L62.9814 25.9336H74.1891L69.706 34.4717H66.9113L68.5852 31.2626H62.9814L61.3075 34.4717H58.5128H58.4983ZM69.706 29.1281L70.2591 28.0536H64.6552L64.1021 29.1281H69.706Z" fill="#E30613"/>
<path d="M75.0769 34.4717L78.4392 28.0681H74.2327L75.3535 25.9336H86.5612L85.4404 28.0681H81.2339L77.8716 34.4717H75.0769Z" fill="#E30613"/>
<path d="M83.2571 34.4717L87.7402 25.9336H90.5348L87.1725 32.3371H95.571L94.4502 34.4717H83.2425H83.2571Z" fill="#E30613"/>
<path d="M95.6292 34.4717L100.112 25.9336H111.32L110.199 28.0681H101.801L101.248 29.1426H109.646L108.525 31.2771H100.127L99.5737 32.3517H107.972L106.851 34.4862H95.6438L95.6292 34.4717Z" fill="#E30613"/>
<path d="M112.208 34.4717L115.57 28.0681H111.364L112.484 25.9336H123.692L122.571 28.0681H118.365L115.003 34.4717H112.208Z" fill="#E30613"/>
<path d="M120.388 34.4717L124.871 25.9336H127.666L123.183 34.4717H120.388Z" fill="#E30613"/>
<path d="M124.362 34.4715L125.482 32.337H133.881L134.434 31.2625H126.035L128.83 25.9189H140.038L138.917 28.0535H130.519L129.965 29.128H138.364L135.569 34.4715H124.362Z" fill="#E30613"/>
<path d="M136.734 34.4717L141.217 25.9336H152.425L147.941 34.4717H145.147L148.509 28.0681H147.112L143.749 34.4717H140.955L144.317 28.0681H142.92L139.558 34.4717H136.763H136.734Z" fill="#E30613"/>
<path d="M149.106 34.4717L153.589 25.9336H164.797L160.314 34.4717H149.106ZM158.625 32.3371L160.867 28.0681H155.263L153.021 32.3371H158.625Z" fill="#E30613"/>
<path d="M93.7661 24.2057L76.1832 7.20221H87.9148L89.0938 4.93701H77.3621L70.3319 18.5427H64.466L73.8252 0.39209H97.274L91.4081 11.7326H87.8857L100.782 24.2057H93.7516H93.7661Z" fill="#E30613"/>
<path d="M90.3602 18.5282L96.226 7.18769H119.675L117.331 11.7181H99.7484L96.226 18.5137H90.3602V18.5282ZM97.3904 4.92249L99.7339 0.39209H123.183L120.839 4.92249H97.3904Z" fill="#E30613"/>
<path d="M116.254 18.5283L118.598 13.9979H142.046L139.703 18.5283H116.254V18.5283ZM119.777 11.7327L122.12 7.20234H145.569L143.225 11.7327H119.777ZM123.299 4.93714L125.643 0.406738H149.091L146.748 4.93714H123.299Z" fill="#E30613"/>
<path d="M142.163 18.5282L151.551 0.39209H175L165.626 18.5282H159.76L163.283 11.7326H151.551L148.029 18.5282H142.163ZM165.612 7.18769L166.791 4.92249H155.059L153.88 7.18769H165.612Z" fill="#E30613"/>
<path d="M40.6679 12.604L47.538 23.1604H58.6002L47.014 12.604H40.6679Z" fill="url(#paint0_linear_3817_10648)"/>
<path d="M27.4079 0.551758L18.8929 11.3695H23.6235L27.4079 0.551758Z" fill="url(#paint1_linear_3817_10648)"/>
<path d="M11.9209 12.5747L8.98069 15.1739L5.07983 23.1602H7.08848L15.5452 12.5892L11.9209 12.5747Z" fill="url(#paint2_linear_3817_10648)"/>
<path d="M23.2014 12.5894H17.9177L9.46103 23.1603H19.5916L23.2014 12.5894Z" fill="url(#paint3_linear_3817_10648)"/>
<path d="M64.3641 12.6185L49.765 12.604L59.7355 21.6793L64.3641 12.6185Z" fill="url(#paint4_linear_3817_10648)"/>
<path d="M25.472 0.508301L13.3037 11.3696H16.5204L25.472 0.508301Z" fill="url(#paint5_linear_3817_10648)"/>
<path d="M8.44215 24.4526L0 34.9945H15.5598L19.155 24.4526H8.44215Z" fill="url(#paint6_linear_3817_10648)"/>
<path d="M33.7395 0.522949H32.8225L39.8673 11.3698H45.6459L33.7395 0.522949Z" fill="url(#paint7_linear_3817_10648)"/>
<path d="M34.8021 24.4526L36.767 34.9945H53.0109L46.1553 24.4526H34.8021Z" fill="url(#paint8_linear_3817_10648)"/>
<path d="M38.4554 12.6039L32.6187 12.5894L34.5691 23.1603H45.3256L38.4554 12.6039Z" fill="url(#paint9_linear_3817_10648)"/>
<path d="M30.7265 12.5894H25.1664L21.5566 23.1603H32.677L30.7265 12.5894Z" fill="url(#paint10_linear_3817_10648)"/>
<path d="M21.1199 24.4526L17.5102 34.9945H34.8748L32.9244 24.4526H21.1199Z" fill="url(#paint11_linear_3817_10648)"/>
<path d="M28.8489 0.508301L25.5739 11.3696H30.4937L28.8489 0.508301Z" fill="url(#paint12_linear_3817_10648)"/>
<path d="M30.5955 0.508301H30.3626L32.3858 11.3696H37.6549L30.5955 0.508301Z" fill="url(#paint13_linear_3817_10648)"/>
<path d="M4.39573 24.4526L1.71753 29.8688L6.05505 24.4526H4.39573Z" fill="url(#paint14_linear_3817_10648)"/>
<path d="M16.273 0.53747L11.3678 10.6002L22.8084 0.522949L16.273 0.53747Z" fill="url(#paint15_linear_3817_10648)"/>
<path d="M58.4837 24.4526H48.3677L54.0298 33.1649L58.4837 24.4526Z" fill="url(#paint16_linear_3817_10648)"/>
<path d="M64.8881 11.3695L70.5065 0.493652L36.4905 0.522693L48.3968 11.3695H64.8881Z" fill="url(#paint17_linear_3817_10648)"/>
</g>
<defs>
<linearGradient id="paint0_linear_3817_10648" x1="-0.800551" y1="17.8749" x2="70.5065" y2="17.8749" gradientUnits="userSpaceOnUse">
<stop stop-color="#FAD323"/>
<stop offset="0.41" stop-color="#DF0914"/>
<stop offset="1" stop-color="#EC7C02"/>
</linearGradient>
<linearGradient id="paint1_linear_3817_10648" x1="-1.45556" y1="5.96791" x2="72.2095" y2="5.96791" gradientUnits="userSpaceOnUse">
<stop stop-color="#FAD323"/>
<stop offset="0.41" stop-color="#DF0914"/>
<stop offset="1" stop-color="#EC7C02"/>
</linearGradient>
<linearGradient id="paint2_linear_3817_10648" x1="-0.800562" y1="17.8747" x2="70.5065" y2="17.8747" gradientUnits="userSpaceOnUse">
<stop stop-color="#FAD323"/>
<stop offset="0.41" stop-color="#DF0914"/>
<stop offset="1" stop-color="#EC7C02"/>
</linearGradient>
<linearGradient id="paint3_linear_3817_10648" x1="-0.800554" y1="17.8748" x2="70.5065" y2="17.8748" gradientUnits="userSpaceOnUse">
<stop stop-color="#FAD323"/>
<stop offset="0.41" stop-color="#DF0914"/>
<stop offset="1" stop-color="#EC7C02"/>
</linearGradient>
<linearGradient id="paint4_linear_3817_10648" x1="-0.800595" y1="17.1489" x2="70.5065" y2="17.1489" gradientUnits="userSpaceOnUse">
<stop stop-color="#FAD323"/>
<stop offset="0.41" stop-color="#DF0914"/>
<stop offset="1" stop-color="#EC7C02"/>
</linearGradient>
<linearGradient id="paint5_linear_3817_10648" x1="-2.48897" y1="5.93897" x2="77.3621" y2="5.93897" gradientUnits="userSpaceOnUse">
<stop stop-color="#FAD323"/>
<stop offset="0.41" stop-color="#DF0914"/>
<stop offset="1" stop-color="#EC7C02"/>
</linearGradient>
<linearGradient id="paint6_linear_3817_10648" x1="-0.800549" y1="29.7236" x2="70.5065" y2="29.7236" gradientUnits="userSpaceOnUse">
<stop stop-color="#FAD323"/>
<stop offset="0.41" stop-color="#DF0914"/>
<stop offset="1" stop-color="#EC7C02"/>
</linearGradient>
<linearGradient id="paint7_linear_3817_10648" x1="-0.800553" y1="5.9391" x2="70.5065" y2="5.9391" gradientUnits="userSpaceOnUse">
<stop stop-color="#FAD323"/>
<stop offset="0.41" stop-color="#DF0914"/>
<stop offset="1" stop-color="#EC7C02"/>
</linearGradient>
<linearGradient id="paint8_linear_3817_10648" x1="-0.800518" y1="29.7236" x2="70.5065" y2="29.7236" gradientUnits="userSpaceOnUse">
<stop stop-color="#FAD323"/>
<stop offset="0.41" stop-color="#DF0914"/>
<stop offset="1" stop-color="#EC7C02"/>
</linearGradient>
<linearGradient id="paint9_linear_3817_10648" x1="-0.800562" y1="17.8748" x2="70.5065" y2="17.8748" gradientUnits="userSpaceOnUse">
<stop stop-color="#FAD323"/>
<stop offset="0.41" stop-color="#DF0914"/>
<stop offset="1" stop-color="#EC7C02"/>
</linearGradient>
<linearGradient id="paint10_linear_3817_10648" x1="-0.800537" y1="17.8748" x2="70.5065" y2="17.8748" gradientUnits="userSpaceOnUse">
<stop stop-color="#FAD323"/>
<stop offset="0.41" stop-color="#DF0914"/>
<stop offset="1" stop-color="#EC7C02"/>
</linearGradient>
<linearGradient id="paint11_linear_3817_10648" x1="-0.800544" y1="29.7236" x2="70.5065" y2="29.7236" gradientUnits="userSpaceOnUse">
<stop stop-color="#FAD323"/>
<stop offset="0.41" stop-color="#DF0914"/>
<stop offset="1" stop-color="#EC7C02"/>
</linearGradient>
<linearGradient id="paint12_linear_3817_10648" x1="-0.800544" y1="5.93897" x2="70.5066" y2="5.93897" gradientUnits="userSpaceOnUse">
<stop stop-color="#FAD323"/>
<stop offset="0.41" stop-color="#DF0914"/>
<stop offset="1" stop-color="#EC7C02"/>
</linearGradient>
<linearGradient id="paint13_linear_3817_10648" x1="-0.887877" y1="5.93897" x2="70.5793" y2="5.93897" gradientUnits="userSpaceOnUse">
<stop stop-color="#FAD323"/>
<stop offset="0.41" stop-color="#DF0914"/>
<stop offset="1" stop-color="#EC7C02"/>
</linearGradient>
<linearGradient id="paint14_linear_3817_10648" x1="-0.800561" y1="27.168" x2="70.5065" y2="27.168" gradientUnits="userSpaceOnUse">
<stop stop-color="#FAD323"/>
<stop offset="0.41" stop-color="#DF0914"/>
<stop offset="1" stop-color="#EC7C02"/>
</linearGradient>
<linearGradient id="paint15_linear_3817_10648" x1="-0.800546" y1="5.56157" x2="70.5065" y2="5.56157" gradientUnits="userSpaceOnUse">
<stop stop-color="#FAD323"/>
<stop offset="0.41" stop-color="#DF0914"/>
<stop offset="1" stop-color="#EC7C02"/>
</linearGradient>
<linearGradient id="paint16_linear_3817_10648" x1="-0.800555" y1="28.8088" x2="70.5065" y2="28.8088" gradientUnits="userSpaceOnUse">
<stop stop-color="#FAD323"/>
<stop offset="0.41" stop-color="#DF0914"/>
<stop offset="1" stop-color="#EC7C02"/>
</linearGradient>
<linearGradient id="paint17_linear_3817_10648" x1="-0.800544" y1="5.93884" x2="70.5065" y2="5.93884" gradientUnits="userSpaceOnUse">
<stop stop-color="#FAD323"/>
<stop offset="0.41" stop-color="#DF0914"/>
<stop offset="1" stop-color="#EC7C02"/>
</linearGradient>
<clipPath id="clip0_3817_10648">
<rect width="175" height="35" fill="white"/>
</clipPath>
</defs>
</svg>
